<svg width="1600" height="900" viewBox="0 0 1600 900" fill="none" xmlns="http://www.w3.org/2000/svg">
  <rect width="1600" height="900" fill="#0B1020"/>
  <defs>
    <linearGradient id="bg" x1="0" y1="0" x2="1600" y2="900" gradientUnits="userSpaceOnUse">
      <stop stop-color="#0B1020"/>
      <stop offset="1" stop-color="#111827"/>
    </linearGradient>
    <linearGradient id="line1" x1="180" y1="0" x2="1420" y2="0" gradientUnits="userSpaceOnUse">
      <stop stop-color="#60A5FA"/>
      <stop offset="0.5" stop-color="#34D399"/>
      <stop offset="1" stop-color="#F59E0B"/>
    </linearGradient>
    <filter id="shadow" x="0" y="0" width="1600" height="900" filterUnits="userSpaceOnUse" color-interpolation-filters="sRGB">
      <feDropShadow dx="0" dy="16" stdDeviation="24" flood-color="#000000" flood-opacity="0.35"/>
    </filter>
  </defs>
  <rect width="1600" height="900" fill="url(#bg)"/>
  <g opacity="0.08">
    <path d="M0 80H1600" stroke="white"/>
    <path d="M0 160H1600" stroke="white"/>
    <path d="M0 240H1600" stroke="white"/>
    <path d="M0 320H1600" stroke="white"/>
    <path d="M0 400H1600" stroke="white"/>
    <path d="M0 480H1600" stroke="white"/>
    <path d="M0 560H1600" stroke="white"/>
    <path d="M0 640H1600" stroke="white"/>
    <path d="M0 720H1600" stroke="white"/>
    <path d="M0 800H1600" stroke="white"/>
    <path d="M100 0V900" stroke="white"/>
    <path d="M200 0V900" stroke="white"/>
    <path d="M300 0V900" stroke="white"/>
    <path d="M400 0V900" stroke="white"/>
    <path d="M500 0V900" stroke="white"/>
    <path d="M600 0V900" stroke="white"/>
    <path d="M700 0V900" stroke="white"/>
    <path d="M800 0V900" stroke="white"/>
    <path d="M900 0V900" stroke="white"/>
    <path d="M1000 0V900" stroke="white"/>
    <path d="M1100 0V900" stroke="white"/>
    <path d="M1200 0V900" stroke="white"/>
    <path d="M1300 0V900" stroke="white"/>
    <path d="M1400 0V900" stroke="white"/>
    <path d="M1500 0V900" stroke="white"/>
  </g>

  <text x="90" y="110" fill="#E5E7EB" font-size="48" font-family="Arial, PingFang SC, Microsoft YaHei, sans-serif" font-weight="700">一张图看懂：browser-harness、browser-use、Playwright 到底怎么选</text>
  <text x="90" y="155" fill="#9CA3AF" font-size="24" font-family="Arial, PingFang SC, Microsoft YaHei, sans-serif">核心判断：它们不是同一层的东西。先看你的目标，再选工具。</text>

  <rect x="90" y="210" width="1420" height="8" rx="4" fill="url(#line1)" opacity="0.9"/>

  <g filter="url(#shadow)">
    <rect x="120" y="280" width="400" height="420" rx="28" fill="#111827" stroke="#60A5FA" stroke-width="3"/>
    <rect x="600" y="280" width="400" height="420" rx="28" fill="#111827" stroke="#34D399" stroke-width="3"/>
    <rect x="1080" y="280" width="400" height="420" rx="28" fill="#111827" stroke="#F59E0B" stroke-width="3"/>
  </g>

  <rect x="150" y="320" width="110" height="38" rx="19" fill="#1E3A8A"/>
  <text x="205" y="346" text-anchor="middle" fill="#DBEAFE" font-size="20" font-family="Arial, PingFang SC, Microsoft YaHei, sans-serif" font-weight="700">底座</text>
  <text x="150" y="400" fill="#EFF6FF" font-size="42" font-family="Arial, PingFang SC, Microsoft YaHei, sans-serif" font-weight="700">Playwright</text>
  <text x="150" y="445" fill="#BFDBFE" font-size="26" font-family="Arial, PingFang SC, Microsoft YaHei, sans-serif">稳定自动化 / 测试 / CI</text>
  <text x="150" y="505" fill="#D1D5DB" font-size="25" font-family="Arial, PingFang SC, Microsoft YaHei, sans-serif">• 适合回归测试、E2E、可回放流程</text>
  <text x="150" y="550" fill="#D1D5DB" font-size="25" font-family="Arial, PingFang SC, Microsoft YaHei, sans-serif">• 强项是稳、可断言、可维护</text>
  <text x="150" y="595" fill="#D1D5DB" font-size="25" font-family="Arial, PingFang SC, Microsoft YaHei, sans-serif">• 不擅长开放式网页任务的临场判断</text>
  <text x="150" y="655" fill="#93C5FD" font-size="28" font-family="Arial, PingFang SC, Microsoft YaHei, sans-serif" font-weight="700">像什么</text>
  <text x="150" y="695" fill="#E5E7EB" font-size="24" font-family="Arial, PingFang SC, Microsoft YaHei, sans-serif">像一台稳定的自动化机械臂</text>

  <rect x="630" y="320" width="110" height="38" rx="19" fill="#065F46"/>
  <text x="685" y="346" text-anchor="middle" fill="#D1FAE5" font-size="20" font-family="Arial, PingFang SC, Microsoft YaHei, sans-serif" font-weight="700">整车</text>
  <text x="630" y="400" fill="#ECFDF5" font-size="42" font-family="Arial, PingFang SC, Microsoft YaHei, sans-serif" font-weight="700">browser-use</text>
  <text x="630" y="445" fill="#A7F3D0" font-size="26" font-family="Arial, PingFang SC, Microsoft YaHei, sans-serif">开放式网页 Agent</text>
  <text x="630" y="505" fill="#D1D5DB" font-size="25" font-family="Arial, PingFang SC, Microsoft YaHei, sans-serif">• 适合多步网页任务、信息抽取、状态判断</text>
  <text x="630" y="550" fill="#D1D5DB" font-size="25" font-family="Arial, PingFang SC, Microsoft YaHei, sans-serif">• 自带 Agent loop、工具层、运行时能力</text>
  <text x="630" y="595" fill="#D1D5DB" font-size="25" font-family="Arial, PingFang SC, Microsoft YaHei, sans-serif">• 比 Playwright 更会做开放任务</text>
  <text x="630" y="655" fill="#6EE7B7" font-size="28" font-family="Arial, PingFang SC, Microsoft YaHei, sans-serif" font-weight="700">像什么</text>
  <text x="630" y="695" fill="#E5E7EB" font-size="24" font-family="Arial, PingFang SC, Microsoft YaHei, sans-serif">像一个会自己规划步骤的网页员工</text>

  <rect x="1110" y="320" width="140" height="38" rx="19" fill="#92400E"/>
  <text x="1180" y="346" text-anchor="middle" fill="#FEF3C7" font-size="20" font-family="Arial, PingFang SC, Microsoft YaHei, sans-serif" font-weight="700">超薄运行层</text>
  <text x="1110" y="400" fill="#FFFBEB" font-size="42" font-family="Arial, PingFang SC, Microsoft YaHei, sans-serif" font-weight="700">browser-harness</text>
  <text x="1110" y="445" fill="#FCD34D" font-size="26" font-family="Arial, PingFang SC, Microsoft YaHei, sans-serif">接管真实浏览器协作</text>
  <text x="1110" y="505" fill="#D1D5DB" font-size="25" font-family="Arial, PingFang SC, Microsoft YaHei, sans-serif">• 适合已登录 Chrome、个人生产力、实时接管</text>
  <text x="1110" y="550" fill="#D1D5DB" font-size="25" font-family="Arial, PingFang SC, Microsoft YaHei, sans-serif">• 优点是薄、灵活、离真实浏览器更近</text>
  <text x="1110" y="595" fill="#D1D5DB" font-size="25" font-family="Arial, PingFang SC, Microsoft YaHei, sans-serif">• 代价是可复现性和标准化更弱</text>
  <text x="1110" y="655" fill="#FBBF24" font-size="28" font-family="Arial, PingFang SC, Microsoft YaHei, sans-serif" font-weight="700">像什么</text>
  <text x="1110" y="695" fill="#E5E7EB" font-size="24" font-family="Arial, PingFang SC, Microsoft YaHei, sans-serif">像让 AI 直接接手你当前浏览器的遥控层</text>

  <rect x="120" y="760" width="1360" height="92" rx="22" fill="#0F172A" stroke="#334155" stroke-width="2"/>
  <text x="160" y="815" fill="#F8FAFC" font-size="30" font-family="Arial, PingFang SC, Microsoft YaHei, sans-serif" font-weight="700">选型口诀：</text>
  <text x="340" y="815" fill="#BFDBFE" font-size="28" font-family="Arial, PingFang SC, Microsoft YaHei, sans-serif">要稳，用 Playwright</text>
  <text x="720" y="815" fill="#A7F3D0" font-size="28" font-family="Arial, PingFang SC, Microsoft YaHei, sans-serif">要会自己做任务，用 browser-use</text>
  <text x="1210" y="815" fill="#FCD34D" font-size="28" font-family="Arial, PingFang SC, Microsoft YaHei, sans-serif" text-anchor="middle">要接管真实浏览器，用 browser-harness</text>
</svg>